<svg width="116" height="42" viewBox="0 0 116 42" fill="none" xmlns="http://www.w3.org/2000/svg">
<g clip-path="url(#clip0_27_14)">
<path fill-rule="evenodd" clip-rule="evenodd" d="M52.9556 23.1631C53.5126 22.9506 53.9904 22.5752 54.3252 22.0873C54.6599 21.5994 54.8356 21.0222 54.8286 20.4331C54.8286 17.9761 53.062 16.7581 50.6356 16.7581H44.2715V30.1141H51.189C53.3174 30.1141 55.4033 28.6441 55.4033 26.3971C55.4033 23.7301 52.9556 23.1841 52.9556 23.1631ZM47.5919 19.5301H50.0609C50.2313 19.5199 50.4019 19.5456 50.5615 19.6053C50.7211 19.665 50.866 19.7575 50.9867 19.8766C51.1074 19.9957 51.2012 20.1387 51.2617 20.2961C51.3223 20.4536 51.3482 20.6219 51.338 20.7901C51.3347 20.9581 51.2969 21.1237 51.227 21.2769C51.1571 21.4301 51.0564 21.5678 50.9311 21.6816C50.8058 21.7954 50.6585 21.883 50.4979 21.9391C50.3374 21.9952 50.167 22.0187 49.997 22.0081H47.5919V19.5301ZM50.0822 27.3211H47.5919V24.6961H50.0183C51.2315 24.6961 51.8062 25.2211 51.8062 25.9981C51.8062 26.9641 51.0826 27.3211 50.0822 27.3211Z" fill="#ED0007"/>
<path fill-rule="evenodd" clip-rule="evenodd" d="M62.7251 16.422C58.8088 16.422 56.5101 19.509 56.5101 23.415C56.5101 27.342 58.8088 30.408 62.7251 30.408C66.6627 30.408 68.9402 27.342 68.9402 23.415C68.9402 19.509 66.6627 16.422 62.7251 16.422ZM62.7251 27.216C60.8095 27.216 59.8517 25.515 59.8517 23.415C59.8517 21.315 60.8095 19.635 62.7251 19.635C64.6407 19.635 65.6198 21.336 65.6198 23.415C65.6198 25.536 64.6407 27.216 62.7251 27.216Z" fill="#ED0007"/>
<path fill-rule="evenodd" clip-rule="evenodd" d="M76.1556 22.008L75.6873 21.903C74.538 21.672 73.6227 21.378 73.6227 20.559C73.6227 19.677 74.4954 19.32 75.2616 19.32C75.7843 19.3281 76.2997 19.4423 76.7758 19.6555C77.2518 19.8686 77.6783 20.1762 78.0286 20.559L80.1358 18.501C79.178 17.43 77.6242 16.401 75.1978 16.401C72.3457 16.401 70.1747 17.976 70.1747 20.601C70.1747 22.995 71.92 24.171 74.0484 24.612L74.5167 24.717C76.2833 25.074 76.9431 25.347 76.9431 26.187C76.9431 26.985 76.2194 27.51 75.1126 27.51C73.793 27.51 72.6011 26.943 71.6859 25.788L69.5361 27.888C70.7281 29.295 72.2393 30.387 75.1552 30.387C77.6881 30.387 80.3912 28.959 80.3912 26.04C80.4337 22.995 78.0925 22.407 76.1556 22.008Z" fill="#ED0007"/>
<path fill-rule="evenodd" clip-rule="evenodd" d="M87.9684 27.216C86.4785 27.216 84.9247 25.998 84.9247 23.331C84.9247 20.958 86.3721 19.635 87.8833 19.635C89.0752 19.635 89.7776 20.181 90.331 21.126L93.0554 19.341C91.6932 17.304 90.0756 16.443 87.8407 16.443C83.7541 16.443 81.5405 19.572 81.5405 23.352C81.5405 27.321 83.9882 30.429 87.7981 30.429C90.48 30.429 91.757 29.505 93.1405 27.531L90.3948 25.704C89.8414 26.586 89.2455 27.216 87.9684 27.216Z" fill="#ED0007"/>
<path fill-rule="evenodd" clip-rule="evenodd" d="M102.144 16.7581V21.6721H98.0359V16.7581H94.4814V30.1141H98.0359V24.8431H102.144V30.1141H105.698V16.7581H102.144Z" fill="#ED0007"/>
<path d="M23.796 13.356C21.7669 13.356 19.7834 13.9496 18.0963 15.0618C16.4092 16.174 15.0943 17.7549 14.3178 19.6044C13.5413 21.454 13.3381 23.4892 13.734 25.4527C14.1298 27.4161 15.1069 29.2197 16.5417 30.6353C17.9764 32.0509 19.8044 33.0149 21.7945 33.4055C23.7846 33.796 25.8473 33.5956 27.7219 32.8295C29.5965 32.0634 31.1988 30.766 32.3261 29.1014C33.4534 27.4369 34.055 25.4799 34.055 23.478C34.0536 20.7939 32.9722 18.2201 31.0486 16.3222C29.125 14.4243 26.5164 13.3574 23.796 13.356ZM23.796 32.655C21.9563 32.655 20.158 32.1167 18.6284 31.1084C17.0988 30.1 15.9067 28.6667 15.2027 26.9898C14.4987 25.313 14.3145 23.4678 14.6734 21.6876C15.0323 19.9074 15.9181 18.2723 17.219 16.9888C18.5198 15.7054 20.1771 14.8314 21.9814 14.4773C23.7856 14.1232 25.6558 14.3049 27.3554 14.9995C29.055 15.6941 30.5077 16.8703 31.5297 18.3795C32.5517 19.8886 33.0972 21.6629 33.0972 23.478C33.0947 25.9111 32.1139 28.2438 30.3702 29.9643C28.6264 31.6848 26.262 32.6525 23.796 32.655Z" fill="black"/>
<path d="M28.0316 17.157H27.3292V20.622H20.284V17.157H19.5604C18.5006 17.847 17.6308 18.7856 17.029 19.8888C16.4272 20.992 16.1122 22.2252 16.1122 23.478C16.1122 24.7308 16.4272 25.964 17.029 27.0672C17.6308 28.1703 18.5006 29.109 19.5604 29.799H20.284V26.334H27.3292V29.799H28.0316C29.0914 29.109 29.9611 28.1703 30.5629 27.0672C31.1647 25.964 31.4797 24.7308 31.4797 23.478C31.4797 22.2252 31.1647 20.992 30.5629 19.8888C29.9611 18.7856 29.0914 17.847 28.0316 17.157ZM19.305 28.434C18.5955 27.8119 18.0276 27.0487 17.6388 26.1945C17.2499 25.3402 17.0488 24.4144 17.0488 23.478C17.0488 22.5416 17.2499 21.6157 17.6388 20.7615C18.0276 19.9073 18.5955 19.144 19.305 18.522V28.434ZM27.3292 25.368H20.284V21.567H27.3292V25.368ZM28.287 28.413V26.313V20.622V18.522C28.9903 19.1455 29.5527 19.908 29.9378 20.7601C30.3228 21.6121 30.5218 22.5346 30.5218 23.4675C30.5218 24.4004 30.3228 25.3228 29.9378 26.1749C29.5527 27.0269 28.9903 27.7895 28.287 28.413Z" fill="black"/>
</g>
<defs>
<clipPath id="clip0_27_14">
<rect width="116" height="42" fill="white"/>
</clipPath>
</defs>
</svg>
