<svg width="21" height="25" viewBox="0 0 21 25" fill="none" xmlns="http://www.w3.org/2000/svg">
<path d="M18.7812 5.76666L15.151 2.13645C13.7739 0.759371 11.9426 0.00103795 9.99471 0.00103795H5.29159C2.41971 -3.72098e-06 0.083252 2.33646 0.083252 5.20833V19.7917C0.083252 22.6635 2.41971 25 5.29159 25H15.7083C18.5801 25 20.9166 22.6635 20.9166 19.7917V10.9219C20.9166 8.97396 20.1583 7.14479 18.7812 5.76666ZM17.3083 7.23958C17.6395 7.57083 17.9197 7.93854 18.1468 8.33333H13.6249C13.051 8.33333 12.5833 7.86562 12.5833 7.29166V2.76979C12.978 2.99687 13.3468 3.27708 13.677 3.60833L17.3072 7.23854L17.3083 7.23958ZM18.8333 19.7917C18.8333 21.5146 17.4312 22.9167 15.7083 22.9167H5.29159C3.56867 22.9167 2.16659 21.5146 2.16659 19.7917V5.20833C2.16659 3.48541 3.56867 2.08333 5.29159 2.08333H9.99471C10.1645 2.08333 10.3333 2.09166 10.4999 2.10729V7.29166C10.4999 9.01458 11.902 10.4167 13.6249 10.4167H18.8093C18.8249 10.5833 18.8333 10.7521 18.8333 10.9219V19.7917ZM14.3614 15.0844C14.7687 15.4917 14.7687 16.15 14.3614 16.5573C14.1583 16.7604 13.8916 16.8625 13.6249 16.8625C13.3583 16.8625 13.0916 16.7604 12.8885 16.5573L11.5416 15.2104V19.7917C11.5416 20.3667 11.0749 20.8333 10.4999 20.8333C9.92492 20.8333 9.45825 20.3667 9.45825 19.7917V15.2104L8.11138 16.5573C7.70409 16.9646 7.04575 16.9646 6.63846 16.5573C6.23117 16.15 6.23117 15.4917 6.63846 15.0844L8.31971 13.4031C9.52179 12.201 11.478 12.201 12.6812 13.4031L14.3624 15.0844H14.3614Z" fill="#3C3747" fill-opacity="0.5"/>
</svg>
