<svg width="21" height="25" viewBox="0 0 21 25" fill="none" xmlns="http://www.w3.org/2000/svg">
<path d="M18.6979 5.76563L15.0677 2.13542C13.6906 0.758334 11.8594 3.48171e-07 9.91146 3.48171e-07H5.20833C2.33646 -0.00104132 0 2.33542 0 5.20729V19.7906C0 22.6625 2.33646 24.999 5.20833 24.999H15.625C18.4969 24.999 20.8333 22.6625 20.8333 19.7906V10.9208C20.8333 8.97292 20.075 7.14375 18.6979 5.76563ZM17.225 7.23854C17.5563 7.56979 17.8365 7.9375 18.0635 8.33229H13.5417C12.9677 8.33229 12.5 7.86458 12.5 7.29063V2.76875C12.8948 2.99583 13.2635 3.27604 13.5938 3.60729L17.224 7.2375L17.225 7.23854ZM18.75 19.7906C18.75 21.5135 17.3479 22.9156 15.625 22.9156H5.20833C3.48542 22.9156 2.08333 21.5135 2.08333 19.7906V5.20729C2.08333 3.48438 3.48542 2.08229 5.20833 2.08229H9.91146C10.0813 2.08229 10.25 2.09063 10.4167 2.10625V7.29063C10.4167 9.01354 11.8188 10.4156 13.5417 10.4156H18.726C18.7417 10.5823 18.75 10.751 18.75 10.9208V19.7906ZM14.2781 15.0833C14.6854 15.4906 14.6854 16.149 14.2781 16.5563C14.075 16.7594 13.8083 16.8615 13.5417 16.8615C13.275 16.8615 13.0083 16.7594 12.8052 16.5563L11.4583 15.2094V19.7906C11.4583 20.3656 10.9917 20.8323 10.4167 20.8323C9.84167 20.8323 9.375 20.3656 9.375 19.7906V15.2094L8.02813 16.5563C7.62083 16.9635 6.9625 16.9635 6.55521 16.5563C6.14792 16.149 6.14792 15.4906 6.55521 15.0833L8.23646 13.4021C9.43854 12.2 11.3948 12.2 12.5979 13.4021L14.2792 15.0833H14.2781Z" fill="#05A6CB"/>
</svg>
