<svg width="25" height="25" viewBox="0 0 25 25" fill="none" xmlns="http://www.w3.org/2000/svg">
<g clip-path="url(#clip0_15_99)">
<path d="M15.625 4.00936C15.6283 4.21651 15.692 4.41819 15.8085 4.58956C15.9249 4.76094 16.0888 4.89455 16.2802 4.97394C17.9909 5.72663 19.4375 6.97343 20.4344 8.55426C21.4313 10.1351 21.933 11.9778 21.875 13.8458C21.8347 16.3322 20.8083 18.7008 19.0216 20.4304C17.2349 22.16 14.8343 23.1091 12.3479 23.0687C9.86151 23.0284 7.49297 22.002 5.76333 20.2153C4.0337 18.4286 3.08466 16.0281 3.125 13.5417C3.12741 11.7252 3.65744 9.9486 4.65068 8.42777C5.64391 6.90695 7.05757 5.70741 8.71979 4.97498C8.91124 4.89512 9.07521 4.76111 9.1916 4.58939C9.30799 4.41768 9.37173 4.21573 9.375 4.00832C9.37527 3.8377 9.33362 3.66963 9.25373 3.51888C9.17383 3.36813 9.05813 3.23931 8.91679 3.14375C8.77545 3.04818 8.6128 2.9888 8.44313 2.97082C8.27347 2.95283 8.10198 2.9768 7.94375 3.04061C5.52634 4.08867 3.54398 5.93784 2.33059 8.27664C1.11719 10.6154 0.746905 13.301 1.28209 15.8809C1.81728 18.4608 3.22524 20.7774 5.26882 22.4406C7.31241 24.1037 9.86673 25.0118 12.5016 25.0118C15.1364 25.0118 17.6907 24.1037 19.7343 22.4406C21.7779 20.7774 23.1858 18.4608 23.721 15.8809C24.2562 13.301 23.8859 10.6154 22.6725 8.27664C21.4591 5.93784 19.4768 4.08867 17.0594 3.04061C16.9009 2.9761 16.729 2.95163 16.5588 2.96934C16.3886 2.98706 16.2254 3.04642 16.0836 3.14218C15.9419 3.23794 15.8258 3.36715 15.7459 3.5184C15.6659 3.66964 15.6244 3.83826 15.625 4.00936Z" fill="#3C3747" fill-opacity="0.5"/>
<path d="M13.5416 1.04167C13.5416 0.46637 13.0752 0 12.4999 0C11.9246 0 11.4583 0.46637 11.4583 1.04167V7.29167C11.4583 7.86696 11.9246 8.33333 12.4999 8.33333C13.0752 8.33333 13.5416 7.86696 13.5416 7.29167V1.04167Z" fill="#3C3747" fill-opacity="0.5"/>
</g>
<defs>
<clipPath id="clip0_15_99">
<rect width="25" height="25" fill="white"/>
</clipPath>
</defs>
</svg>
