<svg width="25" height="25" viewBox="0 0 23 25" fill="none" xmlns="http://www.w3.org/2000/svg">
<path d="M14.625 4.04561C14.6283 4.25277 14.692 4.45444 14.8085 4.62582C14.9249 4.7972 15.0888 4.93081 15.2802 5.0102C16.9909 5.76289 18.4375 7.00968 19.4344 8.59051C20.4313 10.1713 20.933 12.0141 20.875 13.8821C20.8347 16.3685 19.8083 18.737 18.0216 20.4667C16.2349 22.1963 13.8343 23.1453 11.3479 23.105C8.86151 23.0647 6.49297 22.0382 4.76333 20.2516C3.0337 18.4649 2.08466 16.0643 2.125 13.5779C2.12741 11.7615 2.65744 9.98486 3.65068 8.46403C4.64391 6.9432 6.05757 5.74366 7.71979 5.01124C7.91124 4.93137 8.07521 4.79736 8.1916 4.62565C8.30799 4.45394 8.37173 4.25199 8.375 4.04457C8.37527 3.87396 8.33362 3.70589 8.25373 3.55514C8.17383 3.40439 8.05813 3.27557 7.91679 3.18C7.77545 3.08444 7.6128 3.02506 7.44313 3.00707C7.27347 2.98909 7.10198 3.01305 6.94375 3.07686C4.52634 4.12493 2.54398 5.97409 1.33059 8.3129C0.117193 10.6517 -0.253095 13.3372 0.282093 15.9171C0.817281 18.497 2.22524 20.8137 4.26882 22.4768C6.31241 24.14 8.86673 25.048 11.5016 25.048C14.1364 25.048 16.6907 24.14 18.7343 22.4768C20.7779 20.8137 22.1858 18.497 22.721 15.9171C23.2562 13.3372 22.8859 10.6517 21.6725 8.3129C20.4591 5.97409 18.4768 4.12493 16.0594 3.07686C15.9009 3.01236 15.729 2.98788 15.5588 3.0056C15.3886 3.02331 15.2254 3.08267 15.0836 3.17844C14.9419 3.2742 14.8258 3.40341 14.7459 3.55465C14.6659 3.7059 14.6244 3.87452 14.625 4.04561Z" fill="#05A6CB"/>
<path d="M12.5416 1.04167C12.5416 0.46637 12.0752 0 11.4999 0C10.9246 0 10.4583 0.46637 10.4583 1.04167V7.29167C10.4583 7.86696 10.9246 8.33333 11.4999 8.33333C12.0752 8.33333 12.5416 7.86696 12.5416 7.29167V1.04167Z" fill="#05A6CB"/>
</svg>
