<svg width="246" height="303" viewBox="0 0 246 303" fill="none" xmlns="http://www.w3.org/2000/svg">
<g clip-path="url(#clip0_34_11)">
<path d="M126.62 150.379L129.572 152.651L123.211 161.438L121.137 158.499L119.626 156.378C119.31 155.894 119.064 155.348 118.959 154.803C118.607 153.015 120.786 149.197 121.84 147.561L126.62 150.379Z" fill="#979EA4"/>
<path d="M128.834 134.865C128.834 134.865 121.489 139.834 116.885 146.591C116.253 147.5 115.831 150.803 115.585 153.439C115.374 155.712 116.288 158.014 118.08 159.742L120.786 162.347L122.192 160.105L121.067 158.53L119.556 156.409C119.24 155.924 118.994 155.378 118.888 154.833C118.537 153.045 120.716 149.227 121.77 147.591L126.62 150.379L129.572 152.651L125.636 158.075L125.179 159.923L128.553 159.348L134.105 143.167L154.664 121.109L140.607 114.504L128.834 134.865Z" fill="#656A6F"/>
<path d="M189.631 39.3597L188.085 36.9357L188.155 35.754L187.698 33.7542C188.436 31.7847 190.861 30.0576 191.072 28.0578C191.142 27.3306 191.247 26.5428 190.755 26.058C189.069 24.6339 187.593 27.0882 187.593 27.0882L187.452 27.3609L187.101 31.209L186.292 32.9058L183.903 32.8149H181.724L183.2 26.8458L183.305 26.2095L183.481 25.3611L183.129 24.9066C182.708 24.5127 182.532 23.7855 182.251 23.331C181.653 22.3917 181.513 22.6644 182.321 21.1191C182.321 21.1191 179.299 23.0583 175.152 22.3614C175.047 22.3311 174.941 22.2402 174.836 22.2402C170.548 21.3615 170.232 20.907 168.58 21.3009C167.28 21.5433 166.753 21.6039 166.085 22.2402C165.874 22.4523 165.769 22.9371 165.593 23.0886C165.558 23.2401 165.523 23.6037 165.488 23.7552C165.488 23.7552 165.488 24.4218 165.734 26.3913C165.839 27.6033 165.945 29.0274 166.226 30.2394C166.366 30.8454 166.788 31.7241 166.964 32.3301C167.315 33.8451 167.491 35.1177 167.913 36.2388C168.194 36.966 167.807 37.5114 168.194 38.5113C162.747 35.6025 158.776 29.1789 157.827 22.8765C157.756 22.4826 157.721 22.0887 157.721 21.6948C156.948 20.1192 156.491 18.3618 156.491 16.5438C156.491 12.9987 157.756 10.4838 160.111 8.66582C161.165 6.06002 163.871 3.78752 167.456 2.72702C168.651 1.63622 170.302 0.969619 172.13 0.969619C172.938 0.969619 173.746 1.09082 174.484 1.36352C174.449 1.39382 174.414 1.39382 174.379 1.42412C174.449 1.42412 174.484 1.39382 174.555 1.39382C174.52 1.39382 174.52 1.36352 174.484 1.36352C176.101 0.333319 178.245 -0.151481 180.494 0.0606194C182.04 0.212119 183.481 0.696919 184.605 1.39382C185.835 1.39382 187.101 1.57562 188.331 1.99982C189.772 2.48462 191.037 3.21182 192.056 4.12082C195.922 5.24192 198.382 7.90832 199.928 11.3928C202.142 13.3623 202.774 16.5438 202.88 18.7557C203.161 25.0884 197.643 36.8448 189.631 39.3597Z" fill="#032B28"/>
<path d="M192.161 27.3609C191.985 29.3607 189.912 32.118 188.436 33.936L188.787 35.3904L189.596 39.2991L191.634 48.9648C191.529 49.0557 192.302 49.7223 191.142 50.3586C190.896 50.5101 189.877 50.9949 189.596 51.1464C189.42 51.2373 188.823 51.3888 188.612 51.51C188.085 51.7524 187.944 51.9342 187.311 52.2069C183.832 53.6916 179.58 54.3279 179.369 54.54H178.28C178.28 54.54 175.117 53.7522 173.852 52.1766C173.676 51.9645 173.535 51.2676 173.43 50.9646C173.43 50.9343 173.676 50.3889 173.676 50.2374C173.746 49.692 173.852 49.0254 173.957 48.2376C174.133 48.1467 175.187 44.844 174.484 44.7834C174.379 44.7834 174.273 44.7834 174.203 44.7531C172.165 44.6016 170.478 44.238 170.478 44.238C170.478 44.238 169.143 41.1777 168.053 38.481C167.631 37.4508 167.245 36.5115 166.999 35.7843C166.542 34.6632 166.12 33.027 165.769 31.4817C165.593 30.8757 165.453 30.2697 165.312 29.6637C165.066 28.482 164.855 27.27 164.715 26.1186C164.469 24.1491 164.539 22.8765 164.539 22.8765C164.574 22.725 164.609 22.6038 164.644 22.3917C164.785 22.2099 164.961 21.9978 165.207 21.7857C165.874 21.1494 166.823 20.4828 168.123 20.2101C169.81 19.8162 170.478 20.4828 174.765 21.4221C174.871 21.4524 174.976 21.4524 175.082 21.4827C179.229 22.1796 183.34 19.9071 183.34 19.9071C182.532 21.4524 182.708 22.6341 183.27 23.6037C183.551 24.0885 183.938 24.4824 184.289 24.846L184.184 25.2702L183.973 26.2398L183.832 26.8458L182.532 32.3301L183.586 32.3907L186.046 32.5119L186.257 31.1787L186.925 27.4215L186.995 27.0276L187.065 26.5731C188.12 25.3308 189.807 24.0582 191.493 25.4823C192.056 26.0277 192.231 26.664 192.161 27.3609Z" fill="#71767C"/>
<path d="M179.439 44.6016C178.174 45.6621 176.839 46.6317 175.398 47.4801C175.152 47.6316 174.203 48.1467 173.992 48.2376C174.133 47.1771 174.309 46.0257 174.555 44.7834C175.257 44.844 176.031 44.8743 176.733 44.844C177.401 44.844 178.385 44.7531 179.439 44.6016Z" fill="#595E62"/>
<path d="M232.681 300.152C232.681 301.727 231.205 302.97 229.413 302.97H205.726L207.519 290.971H220.451L232.119 298.576C232.54 299.031 232.716 299.606 232.681 300.152Z" fill="#979EA4"/>
<path d="M182.216 303H146.792C143.172 303 139.798 301.637 137.514 299.213L137.444 299.122L161.552 290.971H179.369L182.216 303Z" fill="#979EA4"/>
<path d="M200.244 162.529L199.893 162.469C199.963 162.469 200.103 162.499 200.244 162.529Z" fill="#595E62"/>
<path d="M209.733 163.923L200.877 162.62C203.161 162.953 206.886 163.499 209.733 163.923Z" fill="#595E62"/>
<path d="M186.714 290.971H161.306L158.073 214.736L155.788 139.228L155.648 134.562H169.107C169.283 138.441 170.056 146.925 173.079 153.227C173.922 155.045 174.836 157.227 175.785 159.772C175.89 160.045 175.995 160.348 176.101 160.62C176.136 160.772 176.206 160.893 176.241 161.075C176.347 161.347 176.452 161.65 176.523 161.953C176.558 162.105 176.628 162.226 176.663 162.408C176.839 162.984 177.085 163.559 177.261 164.135C179.193 169.801 181.161 176.437 183.059 183.103C179.967 195.102 177.823 207.828 180.072 221.129C185.449 253.399 185.835 242.885 186.714 290.971Z" fill="#0C323A"/>
<path d="M154.804 121.17L139.763 114.11L151.149 83.6583L155.542 109.716L155.753 119.958L154.804 121.17Z" fill="#A1DFDB"/>
<path d="M197.714 75.5985L197.995 82.9008L194.094 133.896L192.583 134.532H204.813L207.237 107.959L207.202 107.898C203.969 98.8992 199.049 83.1432 197.714 75.5985Z" fill="#79C5C0"/>
<path d="M180.564 61.812L182.883 66.357L181.091 116.291L175.257 122.836L168.826 115.261L173.5 66.357L176.663 61.812L174.203 58.3881L177.085 55.3278L178.596 53.7219V53.7522C179.123 54.3885 180.213 55.1157 181.021 55.8126C181.935 56.6004 182.954 57.6003 183.867 58.2972L180.564 61.812Z" fill="#20849B"/>
<path d="M195.465 52.5099C195.465 52.5099 189.069 57.8427 186.749 60.297C186.749 60.297 185.308 59.388 183.657 58.1457C183.727 58.2063 183.797 58.2669 183.867 58.3275L180.564 61.8423L182.883 66.3873L181.478 105.717L181.161 116.352L175.363 122.866L175.328 122.806L175.293 122.836L168.861 115.261L173.5 66.357L176.663 61.812L174.238 58.4487L172.551 60.2364C172.551 60.2364 171.111 56.5701 171.111 54.1764C171.111 52.8129 171.919 51.7221 172.657 51.0555L159.689 57.9336C152.907 61.4484 149.006 67.9932 149.673 74.8107L150.974 82.5978L151.149 83.7189L155.542 109.777L155.718 118.261L155.788 121.291L155.648 134.593H192.583L194.094 133.926L197.995 82.9311L197.714 75.6288C197.643 75.0531 197.573 74.5077 197.503 74.0532C196.976 69.7203 197.819 59.9637 206.499 58.8426C208.327 58.7517 210.014 58.9638 211.525 59.5092L195.465 52.5099Z" fill="#B6EDE8"/>
<path d="M195.605 52.3281C195.605 52.3281 189.315 58.0548 186.96 60.5091C186.96 60.5091 185.203 59.2971 183.516 58.0548C182.602 57.3579 181.548 56.6004 180.669 55.8126C179.861 55.0854 179.088 54.3885 178.596 53.7522V53.7219C178.807 53.5704 183.129 53.2674 186.573 51.7827C187.206 51.51 187.768 51.2373 188.26 51.0252C188.471 50.904 188.717 50.8131 188.893 50.7222C189.209 50.5707 189.49 50.4192 189.736 50.2374C190.861 49.6011 191.458 49.1163 191.564 49.0254L191.599 48.9951L195.605 52.3281Z" fill="#79C5C0"/>
<path d="M178.666 53.6916L177.155 55.2975L174.273 58.3578L172.551 60.1758C172.551 60.1758 171.111 56.5095 171.111 54.1158C171.111 52.7523 171.919 51.6615 172.657 50.9949C173.219 50.4798 173.676 50.2071 173.676 50.2071V50.2374C173.676 50.3889 173.711 50.601 173.746 50.7525C173.746 50.7828 173.746 50.8131 173.781 50.8434C173.852 51.1161 173.992 51.3888 174.203 51.6009C175.468 53.2068 178.666 53.6916 178.666 53.6916Z" fill="#79C5C0"/>
<path d="M227.726 108.019C227.655 107.989 227.62 107.989 227.55 107.959C226.074 107.535 216.55 105.202 209.557 113.049C208.186 115.837 207.202 119.17 206.464 122.897C205.726 126.593 205.199 130.472 204.848 134.259C204.285 140.168 203.407 145.985 203.477 150.773L192.969 160.438L195.359 163.681L200.56 158.62L199.119 162.317L213.633 164.499C215.742 161.196 215.812 151.561 215.812 151.561C215.812 151.561 228.112 108.08 227.726 108.019Z" fill="#71767C"/>
<path d="M227.691 107.989C227.655 107.989 227.585 107.959 227.515 107.929C226.074 107.504 216.515 105.171 209.522 113.019C209.451 113.08 209.381 113.17 209.311 113.231C208.784 112.08 208.046 110.201 207.202 107.959V107.929C203.934 98.9295 198.979 83.1432 197.714 75.6288C197.608 75.0531 197.538 74.5077 197.503 74.0532C196.976 69.7203 197.784 59.9637 206.499 58.8426C208.327 58.7214 210.049 58.9335 211.525 59.5092C211.63 59.5395 211.701 59.5698 211.806 59.6304C214.758 60.8424 216.972 63.3573 218.307 67.2357L227.691 107.989Z" fill="#A1DFDB"/>
<path d="M115.62 153.409C115.831 150.773 116.288 147.47 116.92 146.561C117.94 145.076 119.064 143.713 120.224 142.44L109.716 139.774L104.023 147.41C106.87 150.258 111.86 154.5 116.218 156.984C115.726 155.863 115.515 154.621 115.62 153.409Z" fill="#B2B9C0"/>
<path d="M93.3044 67.0842L97.0998 112.474C100.965 121.745 110.63 138.501 110.63 138.501L102.688 149.167L93.5855 141.35L92.0392 117.776L90.8444 95.5965L92.9529 70.2657L93.3044 67.0842Z" fill="#0C323A"/>
<path d="M86.4515 163.923L86.346 163.287L71.2346 163.529L70.7778 148.682C70.7778 148.743 70.7426 148.803 70.7426 148.834C68.9152 155.924 65.8226 168.317 62.6598 179.558L59.0049 192.344V218.736C56.1935 237.158 56.1935 245.43 60.5512 290.365H84.4132L86.0298 212.161L86.7326 191.011H86.6975L86.4515 163.923Z" fill="#2E3033"/>
<path d="M56.7557 12.9078C60.3403 18.9981 56.4043 20.6646 55.3852 22.6947C55.104 23.2098 54.9986 23.7552 55.0689 24.3309C54.5417 23.7552 53.9794 23.2098 53.382 22.725C51.7654 21.3615 49.9029 20.4828 48.6377 22.0584C46.5292 24.6642 51.6952 30.1485 54.2254 32.6028L53.5226 34.542C52.3629 33.33 43.1906 22.5735 42.066 18.483C41.1172 15.0894 46.3534 11.514 46.3534 11.514C46.3534 11.514 45.9669 8.8779 50.2894 4.9692C54.612 1.0605 60.1646 2.727 64.4872 1.8483C68.7746 0.999902 73.554 -0.696898 77.244 0.424202C80.7583 1.4847 78.4389 5.9388 78.8606 8.5749V8.6355C79.9852 10.5747 81.1449 14.0289 78.5443 17.4225C78.4389 15.5439 78.228 14.2713 78.228 14.2107C78.1577 14.1501 75.4869 11.7867 73.8 11.4534C71.9726 10.908 71.2346 12.1503 66.6309 13.7865C62.0272 15.4227 56.7557 12.9078 56.7557 12.9078Z" fill="#595E62"/>
<path d="M24.7406 164.075L58.1264 164.287L59.3212 142.349L70.5669 142.259L70.7075 148.834C68.8801 155.924 65.7875 168.317 62.6246 179.558L51.8006 217.342L38.7275 290.426H19.7152C19.7152 227.856 23.8972 169.316 24.7406 164.075Z" fill="#4E5256"/>
<path d="M56.7557 12.9078C60.3403 18.9981 56.4043 20.6646 55.3852 22.6947C55.104 23.2098 54.9986 23.7552 55.0689 24.3309C54.5417 23.7552 53.9794 23.2098 53.382 22.725C51.7654 21.3615 49.9029 20.4828 48.6377 22.0584C46.5292 24.6642 51.6952 30.1485 54.2254 32.6028L53.5226 34.542C52.3629 33.33 43.1906 22.5735 42.066 18.483C41.1172 15.0894 46.3534 11.514 46.3534 11.514C46.3534 11.514 45.9669 8.8779 50.2894 4.9692C54.612 1.0605 60.1646 2.727 64.4872 1.8483C68.7746 0.999902 73.554 -0.696898 77.244 0.424202C80.7583 1.4847 78.4389 5.9388 78.8606 8.5749V8.6355C79.9852 10.5747 81.1449 14.0289 78.5443 17.4225C78.4389 15.5439 78.228 14.2713 78.228 14.2107C78.1577 14.1501 75.4869 11.7867 73.8 11.4534C71.9726 10.908 71.2346 12.1503 66.6309 13.7865C62.0272 15.4227 56.7557 12.9078 56.7557 12.9078Z" fill="#595E62"/>
<path d="M59.6375 47.4195C59.6726 47.3892 66.42 47.6619 66.4552 47.6619L66.8769 51.3888L70.5669 142.198L59.3212 142.289L59.6375 47.4195Z" fill="#1DB7DB"/>
<path d="M93.3043 68.6598C93.3043 68.5083 93.3395 68.3568 93.3395 68.2053C93.3395 68.3568 93.3395 68.5083 93.3043 68.6598Z" fill="#E0E2E5"/>
<path d="M93.3394 68.2053C93.5151 64.6299 92.3906 61.1151 90.282 57.873C92.4608 60.9939 93.5503 64.5996 93.3394 68.2053Z" fill="#E0E2E5"/>
<path d="M66.42 47.6619L69.126 42.0867L82.4803 49.8738C85.5729 51.9645 88.1735 54.54 90.1415 57.5094C92.3203 60.8727 93.4449 64.539 93.1638 68.2659C93.1638 68.3568 93.1638 68.4477 93.1286 68.5689L93.0935 68.9628V68.9931L90.8092 95.5965L91.0552 99.3537L92.2852 117.412L94.3586 148.197L95.0263 158.196L95.3778 163.105L71.1292 163.499L70.5669 148.924L70.4966 142.228L66.8066 52.1766L66.42 47.6619Z" fill="#20849B"/>
<path d="M20.5938 155.803C20.3829 155.136 20.1721 154.469 19.9612 153.772L17.5364 154.045V164.105L19.3989 164.196C19.8558 160.257 20.7695 156.257 20.5938 155.803Z" fill="#20849B"/>
<path d="M19.399 164.165C19.1178 166.68 19.0124 169.135 19.5396 170.65C19.5396 170.65 25.1273 178.013 27.3413 179.861C29.8716 181.952 35.7404 182.376 38.7627 180.255L34.1941 168.68L34.159 168.65L33.5264 166.529L39.8873 169.922L41.6093 167.377L39.0087 164.65L32.6478 164.771L19.399 164.165Z" fill="#551151"/>
<path d="M53.101 42.0564L34.3347 50.5707H34.3698C41.7498 53.6916 42.9095 63.9633 42.277 69.5385C42.277 69.69 42.2418 69.8415 42.2067 69.993C42.1364 70.4172 42.1013 70.7808 42.031 71.1444C41.9958 71.2959 41.9607 71.4777 41.9255 71.6292C39.1844 84.3552 32.8938 102.747 30.3635 110.292L32.1558 152.409L30.0824 152.651C30.0824 154.348 30.1175 155.348 30.1175 155.348L30.3635 156.136L30.1527 155.348L39.0087 164.681L58.1264 164.317L59.3564 142.38L59.6375 47.4801L53.101 42.0564Z" fill="#20849B"/>
<path d="M10.0158 298.485L22.7726 290.425L35.0375 290.395H35.1429L37.0406 303.03H12.7569C10.8943 303.03 9.41833 301.727 9.41833 300.121C9.41833 299.515 9.62919 298.94 10.0158 298.485Z" fill="#1DB7DB"/>
<path d="M81.4261 290.365L107.045 299.031L106.975 299.122C104.62 301.576 101.141 303 97.4513 303H61.1487L64.0655 290.365H81.4261Z" fill="#1DB7DB"/>
<path d="M27.3411 179.861C25.1271 178.012 19.5394 170.65 19.5394 170.65L34.194 168.62L34.2291 168.65L38.7977 180.224C35.7403 182.345 29.8714 181.921 27.3411 179.861Z" fill="#B2B9C0"/>
<path d="M48.6377 22.0281C49.9028 20.4525 51.7654 21.3312 53.382 22.6947C53.9794 23.2098 54.5417 23.7855 55.0688 24.3612C55.0688 24.3309 55.0688 24.3309 55.0688 24.3006C54.9986 23.7552 55.104 23.1795 55.3851 22.6644C56.4043 20.6343 60.3403 18.9678 56.7557 12.8775C56.7557 12.8775 62.0271 15.3621 66.6308 13.6956C71.2346 12.0291 71.9726 10.7868 73.8 11.3625C75.522 11.6958 78.1577 14.0592 78.228 14.1198C78.228 14.2107 78.4388 15.4833 78.5443 17.3316C78.5443 17.3922 78.5443 17.4225 78.5443 17.4831C78.7903 20.7858 78.6497 24.0885 78.1928 27.3306C77.1034 34.1784 75.8734 37.5417 75.8734 37.5417C73.9757 38.2689 72.0077 38.8143 69.9694 39.1476H69.9343C68.0366 39.4506 66.1037 39.5112 64.206 39.3294C65.928 40.4808 67.158 41.208 69.126 42.0261L66.42 47.6013L59.6023 47.3589L53.1008 41.9958L53.5577 34.4814V34.4511L54.2606 32.5119C51.6951 30.1182 46.5291 24.6339 48.6377 22.0281Z" fill="#C1C7CC"/>
<path d="M20.5937 155.803C20.3477 155.015 20.1017 154.197 19.8206 153.348C22.2806 153.167 27.2709 152.773 30.1175 152.561C30.1175 154.318 30.1526 155.318 30.1526 155.318L30.3986 156.106L30.1877 155.318L41.6092 167.377L39.8872 169.922L33.5263 166.529L34.1589 168.65L19.5043 170.68C18.204 166.802 20.8749 156.56 20.5937 155.803Z" fill="#C1C7CC"/>
<path d="M64.9089 39.4506C64.6981 39.4506 64.4872 39.4203 64.2764 39.4203C65.9632 40.5414 67.2284 41.2686 69.1612 42.0867L69.2315 39.2991C67.7907 39.5112 66.3498 39.5415 64.9089 39.4506Z" fill="#A4ABB3"/>
<path d="M7.83691 112.413L22.0346 62.2968C23.6161 55.2672 27.6575 51.2676 34.1941 50.5707L34.3698 50.5404H34.4049C41.7849 53.6613 42.9446 63.933 42.3121 69.5082C42.2418 70.0839 42.1715 70.599 42.0661 71.0535C39.3601 83.8098 32.9641 102.596 30.3986 110.262L32.1909 152.379L16.4821 154.136C16.4469 154.136 7.83691 112.413 7.83691 112.413Z" fill="#791D73"/>
<path d="M7.83691 112.413L22.0346 62.2968C23.6161 55.2672 27.6575 51.2676 34.1941 50.5707L34.3698 50.5404H34.4049C41.7849 53.6613 42.9446 63.933 42.3121 69.5082C42.2418 70.0839 42.1715 70.599 42.0661 71.0535C39.3601 83.8098 32.9641 102.596 30.3986 110.262L32.1909 152.379L16.4821 154.136C16.4469 154.136 7.83691 112.413 7.83691 112.413Z" fill="#0C2E36"/>
<path d="M205.656 173.498C209.838 170.862 213.669 164.499 213.669 164.499L199.155 162.287L194.235 173.861C197.292 175.982 203.161 175.589 205.656 173.498Z" fill="#656A6F"/>
<path d="M209.065 192.466C209.346 183.164 209.662 175.952 209.733 169.862C209.592 170.013 209.451 170.165 209.311 170.347C209.276 170.377 209.241 170.407 209.205 170.468C209.1 170.589 208.959 170.71 208.854 170.831C208.819 170.862 208.784 170.892 208.749 170.922C208.608 171.074 208.467 171.225 208.292 171.377C208.292 171.407 208.257 171.407 208.221 171.437C208.081 171.559 207.94 171.68 207.835 171.831C207.8 171.862 207.765 171.922 207.694 171.953C207.554 172.074 207.448 172.195 207.308 172.286C207.273 172.316 207.237 172.346 207.237 172.346C207.097 172.468 206.921 172.619 206.781 172.74C206.745 172.771 206.71 172.801 206.675 172.831C206.535 172.922 206.429 173.013 206.289 173.104C206.253 173.134 206.183 173.165 206.148 173.195C205.972 173.316 205.832 173.407 205.656 173.528C203.126 175.619 197.257 176.043 194.235 173.922L199.155 162.347L200.595 158.681L195.394 163.681L193.005 160.439L203.512 150.773C203.442 146.046 204.285 140.319 204.848 134.502H169.107L169.072 134.532C169.248 138.41 170.021 146.894 173.043 153.197C173.887 155.015 174.801 157.196 175.749 159.742C175.855 160.014 175.96 160.317 176.066 160.59C176.101 160.742 176.171 160.863 176.206 161.045C176.312 161.317 176.417 161.62 176.487 161.923C176.523 162.075 176.593 162.196 176.628 162.378C176.804 162.953 177.05 163.529 177.225 164.105C179.018 169.407 180.88 175.558 182.637 181.8C182.778 182.164 182.919 182.588 183.024 183.042C188.155 201.222 192.442 219.675 192.442 219.675L206.64 290.971H228.921C228.991 230.007 208.924 198.071 209.065 192.466Z" fill="#20849B"/>
</g>
<defs>
<clipPath id="clip0_34_11">
<rect width="246" height="303" fill="white"/>
</clipPath>
</defs>
</svg>
