<svg width="25" height="25" viewBox="0 0 25 25" fill="none" xmlns="http://www.w3.org/2000/svg">
<g clip-path="url(#clip0_39_71)">
<path d="M23.9583 11.4583H1.04167C0.46637 11.4583 0 11.9247 0 12.5C0 13.0753 0.46637 13.5417 1.04167 13.5417H23.9583C24.5336 13.5417 25 13.0753 25 12.5C25 11.9247 24.5336 11.4583 23.9583 11.4583Z" fill="#3C3747" fill-opacity="0.5"/>
<path d="M23.9583 4.16667H1.04167C0.46637 4.16667 0 4.63304 0 5.20833C0 5.78363 0.46637 6.25 1.04167 6.25H23.9583C24.5336 6.25 25 5.78363 25 5.20833C25 4.63304 24.5336 4.16667 23.9583 4.16667Z" fill="#3C3747" fill-opacity="0.5"/>
<path d="M23.9583 18.75H1.04167C0.46637 18.75 0 19.2164 0 19.7917C0 20.367 0.46637 20.8333 1.04167 20.8333H23.9583C24.5336 20.8333 25 20.367 25 19.7917C25 19.2164 24.5336 18.75 23.9583 18.75Z" fill="#3C3747" fill-opacity="0.5"/>
</g>
<defs>
<clipPath id="clip0_39_71">
<rect width="25" height="25" fill="white"/>
</clipPath>
</defs>
</svg>
