<svg width="25" height="25" viewBox="0 0 25 25" fill="none" xmlns="http://www.w3.org/2000/svg">
<g clip-path="url(#clip0_50_16)">
<path d="M23.9583 11.4583H1.04167C0.46637 11.4583 0 11.9247 0 12.5C0 13.0753 0.46637 13.5416 1.04167 13.5416H23.9583C24.5336 13.5416 25 13.0753 25 12.5C25 11.9247 24.5336 11.4583 23.9583 11.4583Z" fill="#05A6CB"/>
<path d="M23.9583 4.16669H1.04167C0.46637 4.16669 0 4.63306 0 5.20835C0 5.78365 0.46637 6.25002 1.04167 6.25002H23.9583C24.5336 6.25002 25 5.78365 25 5.20835C25 4.63306 24.5336 4.16669 23.9583 4.16669Z" fill="#05A6CB"/>
<path d="M23.9583 18.75H1.04167C0.46637 18.75 0 19.2164 0 19.7917C0 20.367 0.46637 20.8333 1.04167 20.8333H23.9583C24.5336 20.8333 25 20.367 25 19.7917C25 19.2164 24.5336 18.75 23.9583 18.75Z" fill="#05A6CB"/>
</g>
<defs>
<clipPath id="clip0_50_16">
<rect width="25" height="25" fill="white"/>
</clipPath>
</defs>
</svg>
