<svg width="2473" height="4" viewBox="0 0 2473 4" fill="none" xmlns="http://www.w3.org/2000/svg">
<g clip-path="url(#clip0_27_24)">
<path d="M2473 0H0V4H2473V0Z" fill="url(#paint0_linear_27_24)"/>
<path d="M400.038 3.99998H704.948L598.788 2L400.038 3.99998Z" fill="url(#paint1_linear_27_24)"/>
<path d="M1224.51 0H1070.06L986.194 2.00002L1062.52 4H1224.51V0Z" fill="url(#paint2_linear_27_24)"/>
<path d="M716.255 0H716.143L598.787 2.00002L704.948 4L868.227 2.00002L716.255 0Z" fill="url(#paint3_linear_27_24)"/>
<path d="M1070.06 0H716.255L868.227 2.00002L704.948 4H1062.52L986.194 2.00002L1070.06 0Z" fill="url(#paint4_linear_27_24)"/>
<path d="M396.996 0H190.267V1.23798L307.382 2.00002L190.267 2.76205V4H400.038L325.369 2.00002L396.996 0Z" fill="#AF1917"/>
<path d="M716.143 0H396.996L598.788 2.00002L716.143 0Z" fill="url(#paint5_linear_27_24)"/>
<path d="M190.267 0H0L190.267 1.23798V0Z" fill="#931813"/>
<path d="M307.382 2.00007L190.267 1.23804V2.76211L307.382 2.00007Z" fill="#B12638"/>
<path d="M0 4.00003H190.267V2.76208L0 4.00003Z" fill="#931813"/>
<path d="M190.267 1.23798L0 0V4L190.267 2.76205V1.23798Z" fill="#942331"/>
<path d="M396.996 0L325.369 2.00002L400.038 4L598.788 2.00002L396.996 0Z" fill="#D51317"/>
<path d="M2194.22 3.38828C2200.21 3.05704 2228.52 2.67516 2258.49 2.2708C2263.28 2.20614 2268.15 2.14042 2273.01 2.07373C2268.15 2.00209 2263.27 1.93139 2258.47 1.86186C2228.51 1.42723 2200.2 1.01677 2194.22 0.660734C2189.58 0.384339 2199.06 0.177577 2224.76 0H2067.75C2042.05 0.238504 2032.56 0.37962 2037.22 0.656015C2043.19 1.01202 2071.51 1.42249 2101.47 1.8571C2145.87 2.5009 2197.25 3.24308 2180.76 3.99999H2224.84C2199.08 3.83471 2189.57 3.6457 2194.22 3.38828Z" fill="url(#paint6_linear_27_24)"/>
<path d="M2101.47 1.8571C2071.51 1.42249 2043.19 1.01202 2037.21 0.656015C2032.56 0.37962 2042.05 0.238497 2067.75 0H1946.51C1965.88 0.704055 1933.59 1.39307 1899.98 2.17694C1880.37 2.63432 1860.08 3.1072 1854.83 3.49053C1851.04 3.76619 1856.08 3.91821 1860.93 4.00001H2180.75C2197.25 3.24308 2145.87 2.50089 2101.47 1.8571Z" fill="url(#paint7_linear_27_24)"/>
<path d="M2273.01 2.07373C2268.15 2.14041 2263.28 2.20614 2258.49 2.2708C2228.52 2.67516 2200.21 3.05704 2194.22 3.38828C2189.57 3.6457 2199.08 3.8347 2224.83 4.00001H2337.71C2352.43 3.3248 2313.17 2.66524 2273.01 2.07373Z" fill="#169A39"/>
<path d="M2327.48 0C2364.01 0.722307 2319.09 1.4413 2273.01 2.07373C2313.17 2.66525 2352.43 3.3248 2337.71 4H2473V0H2327.48Z" fill="url(#paint8_linear_27_24)"/>
<path d="M1854.83 3.49053C1860.08 3.1072 1880.37 2.63432 1899.98 2.17694C1933.59 1.39307 1965.88 0.704055 1946.51 0H1704.3C1699.45 0.14895 1694.44 0.250403 1698.23 0.546161C1703.49 0.958147 1723.76 1.4664 1743.37 1.95797C1772.25 2.68168 1800.14 3.37873 1795.16 4H1860.93C1856.08 3.9182 1851.04 3.76619 1854.83 3.49053Z" fill="url(#paint9_linear_27_24)"/>
<path d="M1224.51 0V4L1285.02 2.00002L1224.51 0Z" fill="#283587"/>
<path d="M2194.21 0.660734C2200.2 1.01677 2228.51 1.42722 2258.47 1.86186C2263.27 1.9314 2268.14 2.00209 2273.01 2.07373C2319.09 1.4413 2364 0.722307 2327.47 0H2224.75C2199.05 0.177577 2189.58 0.384339 2194.21 0.660734Z" fill="url(#paint10_linear_27_24)"/>
<path d="M1743.37 1.95797C1723.76 1.4664 1703.49 0.958147 1698.23 0.546161C1694.44 0.250396 1699.46 0.148942 1704.3 0H1562.35C1567.57 0.524061 1557.21 1.1131 1538.56 2.09847C1527.8 2.6666 1511.18 3.541 1514.5 4H1795.17C1800.14 3.37874 1772.25 2.68168 1743.37 1.95797Z" fill="url(#paint11_linear_27_24)"/>
<path d="M1224.51 0L1285.02 2.00002L1224.51 4H1417.79L1417.99 0H1224.51Z" fill="url(#paint12_linear_27_24)"/>
<path d="M1538.55 2.09847C1557.21 1.1131 1567.57 0.524061 1562.34 0H1417.99L1417.79 4H1514.5C1511.18 3.541 1527.8 2.6666 1538.55 2.09847Z" fill="url(#paint13_linear_27_24)"/>
</g>
<defs>
<linearGradient id="paint0_linear_27_24" x1="0" y1="2" x2="2473" y2="2" gradientUnits="userSpaceOnUse">
<stop stop-color="#942331"/>
<stop offset="0.0361" stop-color="#931813"/>
<stop offset="0.0846" stop-color="#B12638"/>
<stop offset="0.1237" stop-color="#AF1917"/>
<stop offset="0.1257" stop-color="#B11917"/>
<stop offset="0.1533" stop-color="#CB1517"/>
<stop offset="0.1697" stop-color="#D51317"/>
<stop offset="0.1755" stop-color="#CE1B24"/>
<stop offset="0.1876" stop-color="#BB2742"/>
<stop offset="0.205" stop-color="#9B326B"/>
<stop offset="0.2142" stop-color="#88357F"/>
<stop offset="0.2436" stop-color="#853580"/>
<stop offset="0.2638" stop-color="#6E368C"/>
<stop offset="0.2911" stop-color="#3A4190"/>
<stop offset="0.3242" stop-color="#14387F"/>
<stop offset="0.3926" stop-color="#2B2F75"/>
<stop offset="0.4181" stop-color="#312A6F"/>
<stop offset="0.4756" stop-color="#2A3281"/>
<stop offset="0.494" stop-color="#283587"/>
<stop offset="0.5581" stop-color="#1D61A1"/>
<stop offset="0.5667" stop-color="#2169A5"/>
<stop offset="0.6085" stop-color="#3D8FB6"/>
<stop offset="0.6393" stop-color="#53A7BE"/>
<stop offset="0.6556" stop-color="#5BB0C0"/>
<stop offset="0.6748" stop-color="#53ADBE"/>
<stop offset="0.6993" stop-color="#36A3BA"/>
<stop offset="0.7266" stop-color="#0095B3"/>
<stop offset="0.7426" stop-color="#008BAE"/>
<stop offset="0.798" stop-color="#009490"/>
<stop offset="0.8875" stop-color="#00A24C"/>
<stop offset="1" stop-color="#00937D"/>
</linearGradient>
<linearGradient id="paint1_linear_27_24" x1="704.948" y1="2.99999" x2="400.039" y2="2.99999" gradientUnits="userSpaceOnUse">
<stop stop-color="#88357F"/>
<stop offset="0.3354" stop-color="#88357F"/>
<stop offset="0.5997" stop-color="#8B2E64"/>
<stop offset="0.871" stop-color="#8E284A"/>
<stop offset="1" stop-color="#8F2540"/>
</linearGradient>
<linearGradient id="paint2_linear_27_24" x1="1230.9" y1="0.00389653" x2="1230.89" y2="2.71504" gradientUnits="userSpaceOnUse">
<stop stop-color="#312A6F"/>
<stop offset="0.2427" stop-color="#312A6F"/>
<stop offset="0.418" stop-color="#2F2D72"/>
<stop offset="0.6245" stop-color="#2B337A"/>
<stop offset="0.8457" stop-color="#1E3E87"/>
<stop offset="1" stop-color="#024995"/>
</linearGradient>
<linearGradient id="paint3_linear_27_24" x1="598.787" y1="2" x2="868.227" y2="2" gradientUnits="userSpaceOnUse">
<stop stop-color="#6E368C"/>
<stop offset="1" stop-color="#3A4190"/>
</linearGradient>
<linearGradient id="paint4_linear_27_24" x1="1070.06" y1="2" x2="704.948" y2="2" gradientUnits="userSpaceOnUse">
<stop stop-color="#14387F"/>
<stop offset="0.2311" stop-color="#1D3880"/>
<stop offset="0.5045" stop-color="#313881"/>
<stop offset="0.7981" stop-color="#493984"/>
<stop offset="1" stop-color="#5C3986"/>
</linearGradient>
<linearGradient id="paint5_linear_27_24" x1="718.584" y1="1.00001" x2="388.737" y2="1.00001" gradientUnits="userSpaceOnUse">
<stop stop-color="#88357F"/>
<stop offset="0.3354" stop-color="#88357F"/>
<stop offset="0.5997" stop-color="#8B2E64"/>
<stop offset="0.871" stop-color="#8E284A"/>
<stop offset="1" stop-color="#8F2540"/>
</linearGradient>
<linearGradient id="paint6_linear_27_24" x1="2154.54" y1="7.26017e-06" x2="2154.54" y2="4.00001" gradientUnits="userSpaceOnUse">
<stop stop-color="#94BD55"/>
<stop offset="0.3332" stop-color="#8CBC68"/>
<stop offset="0.6886" stop-color="#85BB74"/>
<stop offset="1" stop-color="#83BB78"/>
</linearGradient>
<linearGradient id="paint7_linear_27_24" x1="1828.82" y1="0.0424742" x2="1828.83" y2="4.25602" gradientUnits="userSpaceOnUse">
<stop stop-color="#00A24C"/>
<stop offset="0.1984" stop-color="#00A150"/>
<stop offset="0.4785" stop-color="#009D5C"/>
<stop offset="0.8055" stop-color="#009770"/>
<stop offset="1" stop-color="#00937D"/>
</linearGradient>
<linearGradient id="paint8_linear_27_24" x1="2373" y1="0" x2="2373" y2="4" gradientUnits="userSpaceOnUse">
<stop stop-color="#699F60"/>
<stop offset="0.096" stop-color="#5A9955"/>
<stop offset="0.2648" stop-color="#449148"/>
<stop offset="0.4524" stop-color="#318C40"/>
<stop offset="0.6718" stop-color="#23893B"/>
<stop offset="1" stop-color="#1D893A"/>
</linearGradient>
<linearGradient id="paint9_linear_27_24" x1="1824.62" y1="0" x2="1824.62" y2="4" gradientUnits="userSpaceOnUse">
<stop stop-color="#00B5DD"/>
<stop offset="0.2243" stop-color="#00B0D8"/>
<stop offset="0.5483" stop-color="#00A3C9"/>
<stop offset="0.9313" stop-color="#008FB3"/>
<stop offset="1" stop-color="#008BAE"/>
</linearGradient>
<linearGradient id="paint10_linear_27_24" x1="2161.75" y1="1.63006" x2="2161.76" y2="0.232577" gradientUnits="userSpaceOnUse">
<stop stop-color="#62B16E"/>
<stop offset="1" stop-color="#86B857"/>
</linearGradient>
<linearGradient id="paint11_linear_27_24" x1="1475.24" y1="0.089078" x2="1475.24" y2="4.32716" gradientUnits="userSpaceOnUse">
<stop stop-color="#009AD2"/>
<stop offset="0.3786" stop-color="#19A1CD"/>
<stop offset="1" stop-color="#5BB0C0"/>
</linearGradient>
<linearGradient id="paint12_linear_27_24" x1="1321.25" y1="0" x2="1321.25" y2="4" gradientUnits="userSpaceOnUse">
<stop stop-color="#174290"/>
<stop offset="0.2651" stop-color="#1C4D98"/>
<stop offset="0.8022" stop-color="#2A6DAF"/>
<stop offset="1" stop-color="#327AB9"/>
</linearGradient>
<linearGradient id="paint13_linear_27_24" x1="1490.74" y1="4" x2="1490.74" y2="0" gradientUnits="userSpaceOnUse">
<stop stop-color="#3E9AC9"/>
<stop offset="1" stop-color="#1D61A1"/>
</linearGradient>
<clipPath id="clip0_27_24">
<rect width="2473" height="4" fill="white"/>
</clipPath>
</defs>
</svg>
