<svg width="25" height="25" viewBox="0 0 25 25" fill="none" xmlns="http://www.w3.org/2000/svg">
<path d="M23.9771 9.15104C23.3562 8.58542 22.5448 8.30521 21.7177 8.33646C20.8802 8.37604 20.1094 8.73958 19.5458 9.35833L16.1948 13.0396C15.6208 12.0927 14.5792 11.4573 13.3937 11.4573H3.125C1.40208 11.4573 0 12.8594 0 14.5823V21.874C0 23.5969 1.40208 24.999 3.125 24.999H14.0083L24.2031 13.5573C25.3427 12.2792 25.2417 10.3031 23.9771 9.15104ZM22.649 12.1708L13.076 22.9156H3.125C2.55 22.9156 2.08333 22.449 2.08333 21.874V14.5823C2.08333 14.0073 2.55 13.5406 3.125 13.5406H13.3927C14.049 13.5406 14.5833 14.075 14.5833 14.7312C14.5833 15.3187 14.1448 15.826 13.5625 15.9083L8.18646 16.676L8.48125 18.7385L13.8573 17.9708C15.0813 17.7958 16.075 16.9417 16.476 15.826L21.0865 10.7594C21.276 10.5521 21.5354 10.4302 21.8156 10.4167C22.0958 10.3958 22.3656 10.501 22.574 10.6906C22.999 11.0771 23.0323 11.7417 22.649 12.1708ZM6.25 2.60417C6.25 1.16562 7.41562 0 8.85417 0C10.2927 0 11.4583 1.16562 11.4583 2.60417C11.4583 4.04271 10.2927 5.20833 8.85417 5.20833C7.41562 5.20833 6.25 4.04271 6.25 2.60417ZM6.25 9.375H4.16667V8.85417C4.16667 7.41771 5.33437 6.25 6.77083 6.25H10.9375C12.374 6.25 13.5417 7.41771 13.5417 8.85417V9.375H11.4583V8.85417C11.4583 8.56771 11.224 8.33333 10.9375 8.33333H6.77083C6.48437 8.33333 6.25 8.56771 6.25 8.85417V9.375Z" fill="#05A6CB"/>
</svg>
